<svg version="1.1" xmlns="http://www.w3.org/2000/svg" xmlns:xlink="http://www.w3.org/1999/xlink" width="500" height="500"><g data-paper-data="{&quot;description&quot;:&quot;Logo for Portfolio\n==================\n\nThis logo was generated by MarkMaker at http://emblemmatic.org/markmaker/ and may be composed of elements designed by others.\n\nThe font is Martel Sans ExtraLight designed by Dan Reynolds and Mathieu Réguer and released under the OFL license via Google Fonts: https://www.google.com/fonts/specimen/Martel%20Sans. The font includes this copyright statement: Copyright (c) 2014 Dan Reynolds. Copyright (c) 2014 Mathieu Reguer.\n\nMarkMaker uses semantic data from the Princeton University WordNet database http://wordnet.princeton.edu and font descriptions from Google Fonts https://www.google.com/fonts.&quot;}" fill="#b0a7e3" fill-rule="nonzero" stroke="none" stroke-width="1" stroke-linecap="butt" stroke-linejoin="miter" stroke-miterlimit="10" stroke-dasharray="" stroke-dashoffset="0" font-family="none" font-weight="none" font-size="none" text-anchor="none" style="mix-blend-mode: normal"><g data-paper-data="{&quot;elementType&quot;:&quot;logo&quot;}"><g data-paper-data="{&quot;elementType&quot;:&quot;text&quot;}"><g data-paper-data="{&quot;baseline&quot;:80,&quot;elementType&quot;:&quot;row&quot;}"><g data-paper-data="{&quot;baselineProportion&quot;:0.975609756097561,&quot;fontSize&quot;:100,&quot;baseline&quot;:80,&quot;elementType&quot;:&quot;word&quot;}"><path d="M66.01525,227.8837c3.71147,0 6.87639,0.62282 9.49476,1.86845c2.61837,1.24563 4.5885,2.96155 5.91039,5.14776c1.32189,2.18621 1.98284,4.65205 1.98284,7.39752c0,4.42326 -1.49984,7.95678 -4.49952,10.60057c-2.99968,2.64379 -7.29584,3.96568 -12.88847,3.96568h-11.74452v22.87893h-4.27073v-51.85891h16.01525M66.01525,253.35558c4.27073,0 7.52463,-0.92787 9.76168,-2.7836c2.23705,-1.85574 3.35558,-4.5885 3.35558,-8.19828c0,-3.35558 -1.14395,-6.02479 -3.43184,-8.00763c-2.28789,-1.98284 -5.51636,-2.97426 -9.68541,-2.97426h-11.74452v21.96378z" data-paper-data="{&quot;elementType&quot;:&quot;letter&quot;,&quot;baseline&quot;:68,&quot;baselineProportion&quot;:1,&quot;fontSize&quot;:100}"></path><path d="M121.15348,281.26787c-3.96568,0 -7.32126,-0.966 -10.06673,-2.898c-2.74547,-1.932 -4.79187,-4.51223 -6.13918,-7.74071c-1.34731,-3.22847 -2.02097,-6.77471 -2.02097,-10.6387c0,-3.91484 0.67366,-7.4865 2.02097,-10.71497c1.34731,-3.22847 3.39371,-5.82142 6.13918,-7.77884c2.74547,-1.95742 6.10105,-2.93613 10.06673,-2.93613c3.96568,0 7.32126,0.966 10.06673,2.898c2.74547,1.932 4.79187,4.51223 6.13918,7.74071c1.34731,3.22847 2.02097,6.77471 2.02097,10.6387c0,3.91484 -0.67366,7.49921 -2.02097,10.7531c-1.34731,3.25389 -3.39371,5.84684 -6.13918,7.77884c-2.74547,1.932 -6.10105,2.898 -10.06673,2.898M121.15348,277.83603c4.42326,0 7.8551,-1.66508 10.29552,-4.99523c2.44042,-3.33016 3.66063,-7.63902 3.66063,-12.9266c0,-5.23673 -1.23292,-9.53289 -3.69876,-12.88847c-2.46584,-3.35558 -5.88497,-5.03337 -10.25739,-5.03337c-4.37242,0 -7.79155,1.67779 -10.25739,5.03337c-2.46584,3.35558 -3.69876,7.65173 -3.69876,12.88847c0,5.28758 1.22021,9.59644 3.66063,12.9266c2.44042,3.33016 5.87226,4.99523 10.29552,4.99523z" data-paper-data="{&quot;elementType&quot;:&quot;letter&quot;,&quot;baseline&quot;:54,&quot;baselineProportion&quot;:0.9642857142857143,&quot;fontSize&quot;:100}"></path><path d="M168.36034,245.88179c2.49126,-2.64379 4.88084,-4.52494 7.16873,-5.64347c2.28789,-1.11853 4.67747,-1.67779 7.16873,-1.67779v3.73689c-2.38958,0 -4.69018,0.54655 -6.90181,1.63966c-2.21163,1.0931 -4.69018,3.11408 -7.43565,6.06292v29.74261h-4.11821v-39.65682h3.35558z" data-paper-data="{&quot;elementType&quot;:&quot;letter&quot;,&quot;baseline&quot;:54,&quot;baselineProportion&quot;:1,&quot;fontSize&quot;:100}"></path><path d="M226.32031,278.75119c-1.37274,0.76263 -2.61837,1.30918 -3.73689,1.63966c-1.11853,0.33047 -2.31331,0.49571 -3.58437,0.49571c-7.62631,0 -11.43947,-4.57579 -11.43947,-13.72736v-23.71783h-6.48236v-1.83031l6.78742,-1.449l1.22021,-9.07531h2.59295v8.99905h12.2021v3.35558h-12.2021v23.5653c0,3.55895 0.55926,6.1646 1.67779,7.81697c1.11853,1.65237 2.99968,2.47855 5.64347,2.47855c1.16937,0 2.18621,-0.13982 3.05052,-0.41945c0.86432,-0.27963 2.00826,-0.77534 3.43184,-1.48713z" data-paper-data="{&quot;elementType&quot;:&quot;letter&quot;,&quot;baseline&quot;:63.800000000000004,&quot;baselineProportion&quot;:0.9770290964777947,&quot;fontSize&quot;:100}"></path><path d="M258.96092,240.0858h12.2021v3.35558h-12.2021v36.30124h-4.11821v-36.30124h-6.48236v-1.83031l6.48236,-1.37274v-4.80458c0,-11.13441 4.27073,-16.70162 12.8122,-16.70162c1.22021,0 2.44042,0.20337 3.66063,0.6101l-0.83889,3.35558c-0.91516,-0.25421 -1.85574,-0.38132 -2.82173,-0.38132c-3.10137,0 -5.32571,1.06768 -6.67302,3.20305c-1.34731,2.13537 -2.02097,5.49094 -2.02097,10.06673z" data-paper-data="{&quot;elementType&quot;:&quot;letter&quot;,&quot;baseline&quot;:80,&quot;baselineProportion&quot;:1,&quot;fontSize&quot;:100}"></path><path d="M307.38799,281.26787c-3.96568,0 -7.32126,-0.966 -10.06673,-2.898c-2.74547,-1.932 -4.79187,-4.51223 -6.13918,-7.74071c-1.34731,-3.22847 -2.02097,-6.77471 -2.02097,-10.6387c0,-3.91484 0.67366,-7.4865 2.02097,-10.71497c1.34731,-3.22847 3.39371,-5.82142 6.13918,-7.77884c2.74547,-1.95742 6.10105,-2.93613 10.06673,-2.93613c3.96568,0 7.32126,0.966 10.06673,2.898c2.74547,1.932 4.79187,4.51223 6.13918,7.74071c1.34731,3.22847 2.02097,6.77471 2.02097,10.6387c0,3.91484 -0.67366,7.49921 -2.02097,10.7531c-1.34731,3.25389 -3.39371,5.84684 -6.13918,7.77884c-2.74547,1.932 -6.10105,2.898 -10.06673,2.898M307.38799,277.83603c4.42326,0 7.8551,-1.66508 10.29552,-4.99523c2.44042,-3.33016 3.66063,-7.63902 3.66063,-12.9266c0,-5.23673 -1.23292,-9.53289 -3.69876,-12.88847c-2.46584,-3.35558 -5.88497,-5.03337 -10.25739,-5.03337c-4.37242,0 -7.79155,1.67779 -10.25739,5.03337c-2.46584,3.35558 -3.69876,7.65173 -3.69876,12.88847c0,5.28758 1.22021,9.59644 3.66063,12.9266c2.44042,3.33016 5.87226,4.99523 10.29552,4.99523z" data-paper-data="{&quot;elementType&quot;:&quot;letter&quot;,&quot;baseline&quot;:54,&quot;baselineProportion&quot;:0.9642857142857143,&quot;fontSize&quot;:100}"></path><path d="M350.47664,218.73213h4.11821v61.01049h-4.11821z" data-paper-data="{&quot;elementType&quot;:&quot;letter&quot;,&quot;baseline&quot;:80,&quot;baselineProportion&quot;:1,&quot;fontSize&quot;:100}"></path><path d="M383.87989,240.0858h4.11821v39.65682h-4.11821zM385.93899,224.68065c-0.81347,0 -1.51255,-0.29234 -2.09724,-0.87703c-0.58468,-0.58468 -0.87703,-1.25834 -0.87703,-2.02097c0,-0.81347 0.29234,-1.52526 0.87703,-2.13537c0.58468,-0.6101 1.28376,-0.91516 2.09724,-0.91516c0.86432,0 1.58881,0.29234 2.1735,0.87703c0.58468,0.58468 0.87703,1.30918 0.87703,2.1735c0,0.76263 -0.30505,1.43629 -0.91516,2.02097c-0.6101,0.58468 -1.32189,0.87703 -2.13537,0.87703" data-paper-data="{&quot;elementType&quot;:&quot;letter&quot;,&quot;baseline&quot;:80,&quot;baselineProportion&quot;:1,&quot;fontSize&quot;:100}"></path><path d="M431.77312,281.26787c-3.96568,0 -7.32126,-0.966 -10.06673,-2.898c-2.74547,-1.932 -4.79187,-4.51223 -6.13918,-7.74071c-1.34731,-3.22847 -2.02097,-6.77471 -2.02097,-10.6387c0,-3.91484 0.67366,-7.4865 2.02097,-10.71497c1.34731,-3.22847 3.39371,-5.82142 6.13918,-7.77884c2.74547,-1.95742 6.10105,-2.93613 10.06673,-2.93613c3.96568,0 7.32126,0.966 10.06673,2.898c2.74547,1.932 4.79187,4.51223 6.13918,7.74071c1.34731,3.22847 2.02097,6.77471 2.02097,10.6387c0,3.91484 -0.67366,7.49921 -2.02097,10.7531c-1.34731,3.25389 -3.39371,5.84684 -6.13918,7.77884c-2.74547,1.932 -6.10105,2.898 -10.06673,2.898M431.77312,277.83603c4.42326,0 7.8551,-1.66508 10.29552,-4.99523c2.44042,-3.33016 3.66063,-7.63902 3.66063,-12.9266c0,-5.23673 -1.23292,-9.53289 -3.69876,-12.88847c-2.46584,-3.35558 -5.88497,-5.03337 -10.25739,-5.03337c-4.37242,0 -7.79155,1.67779 -10.25739,5.03337c-2.46584,3.35558 -3.69876,7.65173 -3.69876,12.88847c0,5.28758 1.22021,9.59644 3.66063,12.9266c2.44042,3.33016 5.87226,4.99523 10.29552,4.99523z" data-paper-data="{&quot;elementType&quot;:&quot;letter&quot;,&quot;baseline&quot;:54,&quot;baselineProportion&quot;:0.9642857142857143,&quot;fontSize&quot;:100}"></path></g></g></g></g></g></svg>